Description

Poster: http://cdn.piczend.com/image/zgurptl93g9n5keo05mmtmjur.jpeg
Release date: 2012
Genre: Drama
Plot: A Naval veteran arrives home from war unsettled and uncertain of his future - until he is tantalized by The Cause and its charismatic leader.
--------------------------------

Runtime: 2 h 24 min
Rating: 7.7/10
Votes: 13,769
Writer(s)/Director(s): Paul Thomas Anderson/Paul Thomas Anderson
Actors: Philip Seymour Hoffman, Joaquin Phoenix, Amy Adams, Jesse Plemons
Trailer: http://www.imdb.com/video/imdb/vi1378657561/

Screenshots:
 
http://cdn.piczend.com/image/ldwwggpxpckq0kv9t2ygrcchy.jpeg
 
http://cdn.piczend.com/image/ungjrpukbhqindopoefypfhh4.jpeg
 
http://cdn.piczend.com/image/oz6qwvbjbkqgvbi2sqfv4uazq.jpeg
 
http://cdn.piczend.com/image/oowwwqblms77jhyuxffpn87td.jpeg


Mediainfo:
General
Complete name : 	The Master (2012) BRRip 688p [Zend]/The Master (2012) BRRip 688p [Zend].mp4
Format : 	MPEG-4
Format profile : 	Base Media
Codec ID : 	isom
File size : 	2.83 GiB
Duration : 	2h 17mn
Overall bit rate : 	2 946 Kbps
Writing application : 	Lavf53.21.1

Video
ID : 	1
Format : 	AVC
Format/Info : 	Advanced Video Codec
Format profile : 	Main@L3.1
Format settings, CABAC : 	Yes
Format settings, ReFrames : 	3 frames
Codec ID : 	avc1
Codec ID/Info : 	Advanced Video Coding
Duration : 	2h 17mn
Bit rate : 	1 500 Kbps
Width : 	1 280 pixels
Height : 	688 pixels
Display aspect ratio : 	1.85:1
Frame rate mode : 	Constant
Frame rate : 	23.976 fps
Color space : 	YUV
Chroma subsampling : 	4:2:0
Bit depth : 	8 bits
Scan type : 	Progressive
Bits/(Pixel*Frame) : 	0.071
Stream size : 	1.37 GiB (49%)
Writing library : 	x264 core 123 r2189 35cf912
Encoding settings : 	cabac=1 / ref=3 / deblock=1:0:0 / analyse=0x1:0x111 / me=hex / subme=7 / psy=1 / psy_rd=1.00:0.00 / mixed_ref=0 / me_range=16 / chroma_me=1 / trellis=1 / 8x8dct=0 / cqm=0 / deadzone=21,11 / fast_pskip=1 / chroma_qp_offset=-2 / threads=6 / sliced_threads=0 / nr=0 / decimate=1 / interlaced=0 / bluray_compat=0 / constrained_intra=0 / bframes=3 / b_pyramid=0 / b_adapt=1 / b_bias=0 / direct=1 / weightb=0 / open_gop=1 / weightp=2 / keyint=250 / keyint_min=23 / scenecut=40 / intra_refresh=0 / rc_lookahead=40 / rc=abr / mbtree=1 / bitrate=1500 / ratetol=1.0 / qcomp=0.60 / qpmin=0 / qpmax=69 / qpstep=4 / ip_ratio=1.25 / aq=1:1.00
Language : 	English

Audio
ID : 	2
Format : 	DTS
Format/Info : 	Digital Theater Systems
Codec ID : 	A9
Duration : 	2h 17mn
Bit rate mode : 	Constant
Bit rate : 	1 510 Kbps
Channel(s) : 	6 channels
Channel positions : 	Front: L C R, Side: L R, LFE
Sampling rate : 	48.0 KHz
Bit depth : 	24 bits
Compression mode : 	Lossy
Delay relative to video : 	42ms
Stream size : 	1.45 GiB (51%)